<svg width="23" height="19" viewBox="0 0 23 19" fill="none" xmlns="http://www.w3.org/2000/svg">
<path d="M21.4211 2.71428H11.5789C11.4254 2.71428 11.2781 2.61896 11.1696 2.44928C11.061 2.2796 11 2.04947 11 1.80952C11 1.56956 11.061 1.33943 11.1696 1.16975C11.2781 1.00008 11.4254 0.904755 11.5789 0.904755H21.4211C21.5746 0.904755 21.7219 1.00008 21.8304 1.16975C21.939 1.33943 22 1.56956 22 1.80952C22 2.04947 21.939 2.2796 21.8304 2.44928C21.7219 2.61896 21.5746 2.71428 21.4211 2.71428Z" fill="#324A5E"/>
<path d="M21 10.254H1.16667C0.857247 10.254 0.560501 10.1428 0.341709 9.9448C0.122916 9.74684 0 9.47836 0 9.19841C0 8.91846 0.122916 8.64997 0.341709 8.45202C0.560501 8.25406 0.857247 8.14285 1.16667 8.14285H21C21.3094 8.14285 21.6062 8.25406 21.825 8.45202C22.0438 8.64997 22.1667 8.91846 22.1667 9.19841C22.1667 9.47836 22.0438 9.74684 21.825 9.9448C21.6062 10.1428 21.3094 10.254 21 10.254Z" fill="#324A5E"/>
<path d="M11.3684 17.1905H0.631579C0.464074 17.1905 0.303429 17.0952 0.184985 16.9255C0.0665411 16.7558 0 16.5257 0 16.2857C0 16.0458 0.0665411 15.8156 0.184985 15.6459C0.303429 15.4763 0.464074 15.381 0.631579 15.381H11.3684C11.5359 15.381 11.6966 15.4763 11.815 15.6459C11.9335 15.8156 12 16.0458 12 16.2857C12 16.5257 11.9335 16.7558 11.815 16.9255C11.6966 17.0952 11.5359 17.1905 11.3684 17.1905Z" fill="#324A5E"/>
</svg>
